Coordinates
version=1
nRows=16
nColumns=36
inDegrees=yes

Units are S.I. units (second, meters, Newtons, ...)
If the header above contains a line with 'inDegrees', this indicates whether rotational values are in degrees (yes) or radians (no).

endheader
time	pelvis_tilt	pelvis_list	pelvis_rotation	pelvis_tx	pelvis_ty	pelvis_tz	hip_flexion_r	hip_adduction_r	hip_rotation_r	knee_angle_r	knee_angle_r_beta	ankle_angle_r	subtalar_angle_r	mtp_angle_r	hip_flexion_l	hip_adduction_l	hip_rotation_l	knee_angle_l	knee_angle_l_beta	ankle_angle_l	subtalar_angle_l	mtp_angle_l	lumbar_extension	lumbar_bending	lumbar_rotation	arm_flex_r	arm_add_r	arm_rot_r	elbow_flex_r	pro_sup_r	arm_flex_l	arm_add_l	arm_rot_l	elbow_flex_l	pro_sup_l
     14.93333330	     -7.16561443	     -2.41724824	      0.54436158	      0.62458076	      0.80351358	      0.75790462	     17.88288762	      4.70566352	     -3.10566010	     19.07588086	      0.33293693	     12.05953472	     -7.54546492	     -7.49999987	     27.21869519	     -6.64022074	     -3.58913450	     62.31005936	      1.08751569	      0.10799559	     -7.69512168	     -7.49999987	     -0.06285489	      5.19463234	     -0.94692954	     -0.39075987	    -16.13224554	      3.02757108	     13.25378768	     88.39456211	      3.55935962	    -11.47367839	     13.16596607	     11.39848856	     88.57531263
     14.95000000	     -7.40014267	     -2.30743739	      0.32190281	      0.62295674	      0.80386868	      0.75939025	     16.30516993	      4.88468590	     -2.40555817	     18.08415755	      0.31562809	     13.15424516	     -7.45732797	     -7.49999987	     28.85583050	     -5.96913227	     -3.56402812	     60.36165110	      1.05350955	      2.28049995	     -8.27349042	     -7.49999987	      0.34008384	      5.11765336	     -0.19138666	      0.70789667	    -16.40423103	      3.09926120	     13.63251069	     88.49243077	      3.68112835	    -11.35471461	     13.17660497	     11.38106763	     88.65108742
     14.96666670	     -6.66311691	     -1.95373592	     -0.06401691	      0.61946319	      0.80471530	      0.76189074	     13.58344957	      4.76957325	     -2.12670178	     16.93454222	      0.29556352	     14.70081481	     -5.80285911	     -7.49999987	     29.22280916	     -5.46547491	     -4.18768977	     57.73581518	      1.00768007	      5.58171747	     -6.82934674	     -7.49999987	     -0.72908899	      4.58489024	      1.19825398	      1.50701469	    -16.87008841	      3.90079350	     15.78489123	     88.63882034	      4.06858361	    -11.54922256	     13.17882085	     12.05744343	     88.54375806
     14.98333330	     -6.92410663	     -1.93330883	     -0.15206006	      0.61434468	      0.80278600	      0.76274499	     12.11673623	      4.89916094	     -2.02150956	     15.87686324	      0.27710354	     15.37267083	     -5.48523919	     -7.49999987	     31.04985876	     -5.01798363	     -4.13539784	     55.00595124	      0.96003496	      7.23459943	     -7.04378021	     -7.49999987	     -0.60177473	      4.58554381	      1.98430582	      2.85768281	    -17.26247158	      3.89942980	     16.56377060	     88.58749389	      4.23279501	    -11.44168169	     13.15686259	     12.66703501	     88.47038898
     15.00000000	     -5.50366980	     -1.73610281	     -0.32972118	      0.60937255	      0.80292931	      0.76261337	      8.79684005	      4.85553352	     -1.87669554	     14.60694639	      0.25493931	     15.94621717	     -4.53633216	     -7.49999987	     30.85122717	     -4.62640619	     -4.56172743	     51.41188899	      0.89730674	      9.36470911	     -5.68080116	     -7.49999987	     -3.07412554	      4.27944150	      3.10940255	      4.21808180	    -17.87129161	      5.15135419	     18.63363197	     88.07960777	      5.32879903	    -11.32342187	     13.05948943	     12.76264742	     87.70520701
     15.01666670	     -5.45108708	     -1.77942401	     -0.48075578	      0.60594311	      0.80200429	      0.76166552	      7.21344095	      5.02231093	     -1.82631665	     13.98738202	      0.24412587	     16.65432225	     -4.14394305	     -7.49999987	     32.32136618	     -4.38496946	     -4.57572474	     47.62350983	      0.83118705	     10.86979367	     -4.54499247	     -7.49999987	     -3.60327580	      4.35432505	      3.85163232	      5.46296434	    -18.30653027	      5.42944562	     19.60824014	     88.43151861	      5.69083222	    -11.05333302	     12.99382192	     13.05910273	     88.02503685
     15.03333330	     -4.85702524	     -1.97899882	     -0.51995575	      0.60218608	      0.80208804	      0.76049533	      4.98972452	      5.31972967	     -1.88808893	     13.42684100	      0.23434258	     17.30390250	     -3.78831224	     -7.49999987	     33.10455075	     -4.24943717	     -4.23493105	     43.36203885	      0.75681035	     11.61038033	     -3.61085638	     -7.49999987	     -5.02687168	      4.65257272	      4.44044301	      6.76545865	    -18.94579785	      6.32643642	     20.83130325	     88.42400488	      6.20152586	    -10.63180859	     12.54076786	     13.47747172	     88.06668175
     15.05000000	     -4.95750221	     -2.29240068	     -0.66119858	      0.59690607	      0.80086301	      0.75906048	      3.69116591	      5.73019460	     -1.79658766	     13.75408660	      0.24005410	     18.00759852	     -3.84459340	     -7.49999987	     34.41624246	     -4.34867771	     -3.71548049	     38.75575572	      0.67641554	     11.80049194	     -2.60546841	     -7.49999987	     -5.47167771	      5.12194593	      4.94401483	      8.08287107	    -19.33706232	      6.43684126	     21.20843336	     87.88202662	      6.64985963	    -10.00963017	     12.28215962	     13.29407254	     87.57525702
     15.06666670	     -4.75774326	     -2.52376500	     -0.44804201	      0.59063047	      0.79894290	      0.75723892	      1.79897194	      6.04845800	     -1.88088439	     13.29006497	      0.23195539	     18.51518720	     -3.60313349	     -7.49999987	     35.15943376	     -4.16526471	     -2.71923570	     33.46481948	      0.58407128	     11.53780220	     -1.80757230	     -7.49999987	     -6.51647491	      5.54043983	      4.92514546	      9.38065186	    -20.03711893	      7.48285123	     22.35638467	     88.75067145	      7.00997550	     -9.67968726	     12.17691631	     13.85745388	     88.73302389
     15.08333330	     -5.15227146	     -2.69149418	     -0.31317858	      0.58481976	      0.79653746	      0.75630982	      0.62152350	      6.32412301	     -1.82650034	     12.80208545	      0.22343854	     18.80934819	     -3.24279693	     -7.49999987	     36.19304072	     -4.04922994	     -1.75478745	     27.34849089	      0.47732121	     11.35408243	     -0.57260532	     -7.49999987	     -6.88092064	      5.89803753	      4.89671119	     10.63436200	    -20.25924118	      7.52364761	     22.62906625	     89.00337961	      7.60045849	     -9.23619192	     11.83655859	     13.56898248	     89.15817146
     15.10000000	     -5.42299919	     -2.71141627	     -0.06894220	      0.58076485	      0.79424998	      0.75522600	     -0.73997901	      6.39875218	     -1.91521941	     11.84378490	      0.20671304	     18.70708946	     -2.39367751	     -7.49999987	     36.65234840	     -3.69079581	     -0.41594973	     20.40016226	      0.35605000	     11.17804958	      0.82791236	     -7.49999987	     -7.52262203	      6.12435585	      4.60455233	     11.84596853	    -20.59515107	      8.26724233	     23.66812723	     89.42665942	      7.84193334	     -8.94635043	     11.30890186	     14.36131182	     90.13533581
     15.11666670	     -5.71264201	     -2.72889356	      0.07730081	      0.57808399	      0.79132124	      0.75351142	     -1.93610413	      6.42433840	     -2.02022735	     10.91230338	      0.19045562	     18.71472421	     -0.92687767	     -7.49999987	     36.81799921	     -3.40750888	      1.41153140	     13.33036573	      0.23265877	     10.93656911	      2.15248398	     -7.49999987	     -7.99293803	      6.34771477	      4.43404569	     13.06461013	    -20.73998511	      8.58789337	     24.30964870	     89.69516524	      8.22632442	     -8.63541937	     10.76729190	     14.64370989	     90.93518247
     15.13333330	     -5.73252343	     -2.71155941	      0.07186226	      0.57614191	      0.78898300	      0.75121098	     -3.38176413	      6.38626681	     -1.84121409	      9.93859541	      0.17346121	     18.97816454	      0.63579408	     -7.49999987	     36.70773251	     -3.30544557	      3.57013411	      7.31592590	      0.12768699	     10.72071388	      2.93731925	     -7.49999987	     -8.60365976	      6.50838774	      4.42446550	     14.31710126	    -20.85410575	      9.17950644	     25.05221267	     89.22015543	      8.59994665	     -8.39292914	     10.56947824	     15.06058355	     90.91109396
     15.15000000	     -5.53388750	     -2.60364154	      0.02484778	      0.57601659	      0.78687140	      0.74844952	     -5.11012459	      6.25873727	     -1.26434412	      8.84014246	      0.15428959	     19.49166857	      1.94117327	     -7.49999987	     36.77352610	     -3.27011577	      5.26655700	      3.43493922	      0.05995100	     10.76328990	      3.50275336	     -7.49999987	     -9.32215823	      6.49111633	      4.41739125	     15.66943987	    -20.80834757	     10.00896999	     25.57466572	     88.90244565	      8.89047037	     -8.27096345	     10.53424042	     15.21163567	     90.93114792
     15.16666670	     -5.29760216	     -2.30696330	      0.15000417	      0.57761804	      0.78415228	      0.74545227	     -6.92591209	      5.92065572	     -0.70371387	      7.71638131	      0.13467626	     20.28772594	      3.05035484	     -7.49999987	     37.30890581	     -2.91472732	      6.15149816	      1.99257226	      0.03477695	     11.27642453	      4.08536721	     -7.49999987	     -9.88456877	      6.19365340	      4.30532063	     16.68042018	    -20.54777329	     10.26115063	     26.04094568	     89.12272937	      9.08576938	     -8.23543311	     10.30912334	     15.15424353	     91.19696955
     15.18333330	     -4.92419984	     -1.58064551	      0.27736913	      0.57898416	      0.78116309	      0.74381095	     -8.89411305	      5.11740365	      0.05243908	      6.72837063	      0.11743222	     21.15575673	      3.50503909	     -7.49999987	     37.78929950	     -2.04955793	      6.06806339	      2.33161550	      0.04069437	     11.76049287	      4.37454341	     -7.49999987	    -10.49816817	      5.31721521	      3.97043492	     17.78349534	    -20.03594872	     11.17462677	     25.69860510	     90.27437935	      9.05893080	     -8.37703029	      8.56313521	     15.25521398	     93.47861913
